<svg width="41" height="34" viewBox="0 0 41 34" fill="none" xmlns="http://www.w3.org/2000/svg">
<path d="M37.6875 0.59375H3.3125C2.6909 0.59375 2.09476 0.84068 1.65522 1.28022C1.21568 1.71976 0.96875 2.3159 0.96875 2.9375V31.0625C0.96875 31.6841 1.21568 32.2802 1.65522 32.7198C2.09476 33.1593 2.6909 33.4062 3.3125 33.4062H37.6875C38.3091 33.4062 38.9052 33.1593 39.3448 32.7198C39.7843 32.2802 40.0312 31.6841 40.0312 31.0625V2.9375C40.0312 2.3159 39.7843 1.71976 39.3448 1.28022C38.9052 0.84068 38.3091 0.59375 37.6875 0.59375ZM3.3125 2.15625H37.6875C37.8947 2.15625 38.0934 2.23856 38.2399 2.38507C38.3864 2.53159 38.4688 2.7303 38.4688 2.9375V24.8906L32.0449 18.4668C31.8272 18.2483 31.5684 18.0749 31.2836 17.9566C30.9987 17.8383 30.6932 17.7774 30.3848 17.7774C30.0763 17.7774 29.7709 17.8383 29.486 17.9566C29.2011 18.0749 28.9424 18.2483 28.7246 18.4668L24.2656 22.9258L15.1211 13.7793C14.9034 13.5608 14.6446 13.3874 14.3597 13.2691C14.0748 13.1508 13.7694 13.0899 13.4609 13.0899C13.1525 13.0899 12.847 13.1508 12.5621 13.2691C12.2773 13.3874 12.0185 13.5608 11.8008 13.7793L2.53125 23.0547V2.9375C2.53125 2.7303 2.61356 2.53159 2.76007 2.38507C2.90659 2.23856 3.1053 2.15625 3.3125 2.15625ZM2.53125 31.0625V25.2695L12.916 14.8848C12.9886 14.8121 13.0747 14.7545 13.1696 14.7152C13.2644 14.6759 13.3661 14.6556 13.4688 14.6556C13.5714 14.6556 13.6731 14.6759 13.7679 14.7152C13.8628 14.7545 13.9489 14.8121 14.0215 14.8848L30.9805 31.8438H3.3125C3.1053 31.8438 2.90659 31.7614 2.76007 31.6149C2.61356 31.4684 2.53125 31.2697 2.53125 31.0625ZM37.6875 31.8438H33.1953L25.3828 24.0312L29.8418 19.5723C29.9144 19.4996 30.0005 19.442 30.0954 19.4027C30.1902 19.3634 30.2919 19.3431 30.3945 19.3431C30.4972 19.3431 30.5989 19.3634 30.6937 19.4027C30.7885 19.442 30.8747 19.4996 30.9473 19.5723L38.4688 27.0996V31.0625C38.4688 31.2697 38.3864 31.4684 38.2399 31.6149C38.0934 31.7614 37.8947 31.8438 37.6875 31.8438ZM24.4062 11.5312C24.4062 11.2222 24.4979 10.9201 24.6696 10.6632C24.8413 10.4062 25.0853 10.2059 25.3708 10.0877C25.6563 9.96943 25.9705 9.93848 26.2736 9.99877C26.5767 10.0591 26.8551 10.2079 27.0736 10.4264C27.2921 10.6449 27.4409 10.9233 27.5012 11.2264C27.5615 11.5295 27.5306 11.8437 27.4123 12.1292C27.2941 12.4147 27.0938 12.6587 26.8368 12.8304C26.5799 13.0021 26.2778 13.0938 25.9688 13.0938C25.5543 13.0938 25.1569 12.9291 24.8639 12.6361C24.5709 12.3431 24.4062 11.9457 24.4062 11.5312Z" fill="#7C85D2"/>
</svg>
